<svg width="32" height="32" viewBox="0 0 32 32" xmlns="http://www.w3.org/2000/svg">
<path fill-rule="evenodd" clip-rule="evenodd" d="M11.7347 7.46684L10.668 8.53351L11.7347 9.60017L14.9348 12.8001L14.9347 12.8002L16.0014 13.8669L16.0015 13.8668L18.1349 16.0001L18.1349 16.0002L19.2016 17.0668V17.0668L21.3352 19.2001L22.4019 18.1335L20.2684 16.0001L22.4017 13.8668L21.335 12.8002L19.2016 14.9334L17.0682 12.8001L21.335 8.53358V8.53356V8.53354L19.2019 6.40051L21.3356 4.26693L20.2689 3.20026L18.1352 5.33384L17.0682 4.26694L17.0683 4.26686L16.0016 3.2002L16.0015 3.20028L16.0014 3.20023L14.9347 4.26689L14.9348 4.26694L13.8681 5.33354L11.7347 3.20023L10.668 4.26689L12.8014 6.4002L11.7347 7.46684ZM13.8714 7.46725L12.8047 8.53389L16.0048 11.7339L19.2049 8.53393L16.0047 5.33398L14.9381 6.40057L14.9381 6.40059L13.8714 7.46726L13.8714 7.46725ZM16.0019 28.7996L16.0021 28.7994L16.0024 28.7998L17.0691 27.7332L17.0689 27.7327L20.2688 24.5331L21.3355 23.4664L20.2688 22.3997L17.0689 19.2001L17.0691 19.1998L16.0024 18.1331L16.0022 18.1334L13.8685 15.9998H13.8686L12.8019 14.9331L12.8018 14.9332L10.6683 12.7998L9.60156 13.8664L11.7351 15.9998L9.60169 18.1331L10.6684 19.1998L12.8018 17.0665L14.9354 19.2001L11.7356 22.3998L10.6688 23.4664L11.7356 24.5331L14.9354 27.7327L14.9352 27.7332L16.0019 28.7996ZM16.0046 20.2666L19.2045 23.4663L16.0046 26.6661L12.8047 23.4664L16.0046 20.2666Z" />
</svg>
