<svg width="1792" height="219" viewBox="0 0 1792 219" fill="none" xmlns="http://www.w3.org/2000/svg">
<g clip-path="url(#clip0_1114_5503)">
<mask id="mask0_1114_5503" style="mask-type:luminance" maskUnits="userSpaceOnUse" x="0" y="-85" width="1792" height="397">
<path d="M1792 -84.2356H0V311.045H1792V-84.2356Z" fill="white"/>
</mask>
<g mask="url(#mask0_1114_5503)">
<path d="M1773.84 36.3838H1769.93C1769.37 36.3838 1768.99 36.7599 1768.99 37.324V41.273C1768.99 41.8371 1769.37 42.2132 1769.93 42.2132H1773.84C1774.4 42.2132 1774.77 41.8371 1774.77 41.273V37.324C1774.96 36.7599 1774.4 36.3838 1773.84 36.3838Z" fill="black"/>
<path d="M1717.32 16.8261H1721.24C1721.8 16.8261 1722.18 16.45 1722.18 15.8859V11.937C1722.18 11.3729 1721.8 10.9968 1721.24 10.9968H1717.32C1716.76 10.9968 1716.39 11.3729 1716.39 11.937V15.8859C1716.39 16.45 1716.76 16.8261 1717.32 16.8261Z" fill="black"/>
<path d="M1726.46 42.3993H1734.84C1735.4 42.3993 1735.96 41.8352 1735.78 41.2711L1731.5 6.4829C1731.3 5.35466 1729.64 5.35466 1729.44 6.4829L1725.16 41.2711C1725.52 41.8352 1725.9 42.3993 1726.46 42.3993Z" fill="black"/>
<path d="M1745.5 65.9085L1736.35 58.7624C1735.98 58.3855 1735.42 58.3855 1735.05 58.7624L1725.91 65.9085C1725.73 66.0963 1725.53 66.4718 1725.53 66.6596V74.3704C1725.53 74.9336 1725.91 75.3106 1726.47 75.3106H1744.94C1745.5 75.3106 1745.86 74.9336 1745.86 74.3704V66.6596C1745.86 66.284 1745.86 66.0963 1745.5 65.9085Z" fill="black"/>
<path d="M1791.73 58.7616L1786.33 54.4364C1785.95 54.0603 1785.39 54.0603 1785.02 54.4364L1779.61 58.7616C1779.42 58.9493 1779.24 59.3248 1779.24 59.514V63.8381C1779.24 64.4028 1779.61 64.7783 1780.17 64.7783H1790.99C1791.55 64.7783 1791.91 64.4028 1791.91 63.8381V59.514C1792.11 59.1371 1791.91 58.9493 1791.73 58.7616Z" fill="black"/>
<path d="M1730.75 56.3165C1733.75 56.3165 1735.98 53.872 1735.98 51.0513C1735.98 48.0426 1733.55 45.7861 1730.75 45.7861C1727.77 45.7861 1725.53 48.2307 1725.53 51.0513C1725.53 53.872 1727.77 56.3165 1730.75 56.3165Z" fill="black"/>
<path d="M1773.83 47.4783H1760.78C1760.22 47.4783 1759.84 47.8544 1759.84 48.4185V55.9402C1759.84 56.5044 1760.22 56.8804 1760.78 56.8804H1773.83C1774.39 56.8804 1774.76 56.5044 1774.76 55.9402V48.4185C1774.95 47.8544 1774.39 47.4783 1773.83 47.4783Z" fill="black"/>
<path d="M1721.25 75.4954H1711.37C1710.81 75.4954 1710.44 75.8709 1710.44 76.4356V80.9488C1710.44 81.5121 1710.81 81.889 1711.37 81.889H1721.25C1721.81 81.889 1722.19 81.5121 1722.19 80.9488V76.4356C1722.37 75.8709 1721.81 75.4954 1721.25 75.4954Z" fill="black"/>
<path d="M1744.94 87.1553H1726.47C1725.91 87.1553 1725.53 87.5322 1725.53 88.0955V92.6087C1725.53 93.1734 1725.91 93.5489 1726.47 93.5489H1744.94C1745.5 93.5489 1745.86 93.1734 1745.86 92.6087V88.0955C1745.86 87.72 1745.5 87.1553 1744.94 87.1553Z" fill="black"/>
<path d="M1716.97 40.5192C1716.59 40.3312 1716.21 40.3312 1715.85 40.5192C1714.35 41.4594 1710.44 44.6561 1710.44 49.1692V63.8362C1710.44 64.4009 1710.81 64.7764 1711.37 64.7764H1721.25C1721.81 64.7764 1722.19 64.4009 1722.19 63.8362V49.1692C1722.37 44.6561 1718.45 41.6474 1716.97 40.5192Z" fill="black"/>
<path d="M1755.38 53.121V52.9328C1755.38 52.7448 1755.38 52.7448 1755.38 52.5567C1755.38 47.8557 1749.22 45.7873 1747.74 40.522C1747.74 40.334 1747.54 40.334 1747.36 40.334C1747.18 40.334 1747.18 40.522 1746.98 40.522C1745.3 45.4111 1739.34 47.8557 1739.34 52.5567C1739.34 52.7448 1739.34 52.7448 1739.34 52.9328V53.121C1739.72 56.6938 1743.08 59.515 1747.36 59.515C1751.46 59.515 1755.01 56.6938 1755.38 53.121Z" fill="black"/>
<path d="M1752.95 10.8097H1757.05C1757.61 10.8097 1757.97 10.4336 1757.97 9.86945V3.28789C1757.97 1.78357 1756.67 0.467285 1754.81 0.467285C1753.13 0.467285 1751.63 1.78357 1751.63 3.28789V9.86945C1752.01 10.4336 1752.39 10.8097 1752.95 10.8097Z" fill="black"/>
<path d="M1752.96 42.4021H1761.9C1762.46 42.4021 1762.84 42.026 1762.84 41.4619V26.6064C1762.84 25.4782 1761.9 24.5378 1760.78 24.5378H1753.88C1752.76 24.5378 1751.84 25.4782 1751.84 26.6064V41.4619C1752.02 41.838 1752.4 42.4021 1752.96 42.4021Z" fill="black"/>
<path d="M1703.15 36.3838H1696.25C1695.13 36.3838 1694.21 37.324 1694.21 38.4522V46.5382C1694.21 47.1024 1694.57 47.4784 1695.13 47.4784H1704.09C1704.65 47.4784 1705.02 47.1024 1705.02 46.5382V38.4522C1705.21 37.1359 1704.27 36.3838 1703.15 36.3838Z" fill="black"/>
<path d="M1759.83 61.5818C1755.55 61.5818 1752.01 62.522 1752.01 63.65V74.3691C1752.01 74.9324 1752.39 75.3093 1752.95 75.3093H1766.74C1767.3 75.3093 1767.67 74.9324 1767.67 74.3691V63.65C1767.86 62.522 1764.31 61.5818 1759.83 61.5818Z" fill="black"/>
<path d="M1711.36 36.3847H1721.24C1721.8 36.3847 1722.18 36.0086 1722.18 35.4445V26.0423C1722.18 25.2901 1719.56 24.5378 1716.2 24.5378C1712.86 24.5378 1710.24 25.2901 1710.24 26.0423V35.4445C1710.43 35.8205 1710.8 36.3847 1711.36 36.3847Z" fill="black"/>
<path d="M1739.9 35.256C1739.9 35.8201 1740.28 36.1962 1740.84 36.1962H1745.68C1746.24 36.1962 1746.62 35.8201 1746.62 35.256V15.1353C1746.62 14.5711 1745.12 14.1951 1743.26 14.1951C1741.4 14.1951 1739.9 14.5711 1739.9 15.1353V35.256Z" fill="black"/>
<path d="M1699.43 54.6218C1699.05 54.0577 1698.31 54.0577 1697.93 54.6218L1694.39 59.1345C1694.21 59.3223 1694.21 59.5114 1694.21 59.6992V63.8355C1694.21 64.4002 1694.57 64.7757 1695.13 64.7757H1702.22C1702.78 64.7757 1703.15 64.4002 1703.15 63.8355V59.6992C1703.15 59.5114 1703.15 59.3223 1702.97 59.1345L1699.43 54.6218Z" fill="black"/>
<path d="M1688.24 58.1968H1681.91C1681.35 58.1968 1680.97 58.5737 1680.97 59.137V63.6502C1680.97 64.2149 1681.35 64.5904 1681.91 64.5904H1688.24C1688.8 64.5904 1689.18 64.2149 1689.18 63.6502V59.137C1689.18 58.7615 1688.8 58.1968 1688.24 58.1968Z" fill="black"/>
<path d="M554.042 123.449H419.961V47.4783H406.906V213.333H419.961V135.107H554.042V213.333H567.283V47.4783H554.042V123.449Z" fill="black"/>
<path d="M788.07 213.334H801.124V59.3252H926.068V213.334H938.936V47.103H788.07V213.334Z" fill="black"/>
<path d="M248.386 194.153C244.842 199.417 241.673 200.734 238.876 200.734C234.772 200.734 230.856 197.726 230.856 191.145V47.4783H217.803V191.145C217.803 205.811 228.245 214.462 238.129 214.462C247.64 214.462 253.42 210.137 258.828 201.487L350.019 60.8293H362.141V213.522H375.195V47.4783H342.747L248.386 194.153Z" fill="black"/>
<path d="M165.784 46.5376C156.274 46.5376 149.001 50.8625 143.22 62.1445L97.158 152.782H88.9528L42.8912 62.1445C37.1102 50.8625 29.8374 46.5376 20.3267 46.5376C8.95122 46.5376 0 55.1876 0 69.8553V213.521H13.0539V69.6676C13.0539 63.0862 16.7835 60.0764 21.0727 60.0764C25.1754 60.0764 27.9726 62.1445 31.3293 68.3504L80.934 165.945H105.177L154.967 68.3504C158.138 61.9568 160.936 60.0764 165.225 60.0764C169.327 60.0764 173.243 63.0862 173.243 69.6676V213.332H186.298V69.6676C186.11 55.1876 177.16 46.5376 165.784 46.5376Z" fill="black"/>
<path d="M1347.53 193.776C1343.99 199.042 1340.82 200.358 1338.02 200.358C1333.92 200.358 1330 197.349 1330 190.768V47.4783H1316.95V190.768C1316.95 205.436 1327.39 214.085 1337.28 214.085C1346.79 214.085 1352.57 209.761 1357.97 201.11L1449.17 60.8293H1461.29V213.522H1474.34V47.4783H1441.89L1347.53 193.776Z" fill="black"/>
<path d="M1640.69 156.544C1630.81 183.811 1605.82 203.368 1575.79 203.368C1537.75 203.368 1506.6 170.459 1506.6 130.781C1506.6 90.916 1537.75 58.3844 1575.79 58.3844C1602.84 58.3844 1625.95 74.3693 1638.07 97.8744H1652.44C1640.13 66.4708 1610.3 44.4697 1575.98 44.4697C1530.85 44.4697 1493.93 83.2066 1493.93 130.781C1493.93 178.17 1530.85 216.718 1575.98 216.718C1613.08 216.718 1644.23 191.52 1654.68 156.732H1640.69V156.544Z" fill="black"/>
<path d="M1155.08 165.946C1153.77 189.452 1150.23 200.735 1128.04 200.735V213.71C1157.31 213.71 1166.45 197.537 1168.13 166.886L1173.91 59.3244H1272V213.333H1285.43V47.4783H1161.6L1155.08 165.946Z" fill="black"/>
<path d="M1042.26 203.18C1003.47 203.18 972.699 170.271 972.699 130.594C972.699 90.7281 1003.47 58.1965 1042.26 58.1965C1080.3 58.1965 1111.82 90.7281 1111.82 130.594C1111.82 170.271 1080.3 203.18 1042.26 203.18ZM1042.26 44.0935C996.569 44.0935 959.273 83.0187 959.273 130.406C959.273 178.17 996.383 216.718 1042.26 216.718C1087.76 216.718 1124.5 178.17 1124.5 130.406C1124.5 83.0187 1087.76 44.0935 1042.26 44.0935Z" fill="black"/>
<path d="M629.567 193.776C626.024 199.042 622.854 200.358 620.057 200.358C615.955 200.358 612.038 197.349 612.038 190.768V47.4783H598.984V190.768C598.984 205.436 609.427 214.085 619.311 214.085C628.823 214.085 634.603 209.761 640.011 201.11L731.202 60.8293H743.323V213.522H756.377V47.4783H723.929L629.567 193.776Z" fill="black"/>
</g>
</g>
<defs>
<clipPath id="clip0_1114_5503">
<rect width="1792" height="219" fill="white"/>
</clipPath>
</defs>
</svg>
