<svg width="13" height="14" viewBox="0 0 13 14" xmlns="http://www.w3.org/2000/svg">
<path d="M8.88533 4.17133L5.11467 7.94266C5.05099 8.00416 5.0002 8.07772 4.96526 8.15906C4.93032 8.2404 4.91193 8.32788 4.91116 8.4164C4.9104 8.50492 4.92726 8.5927 4.96078 8.67463C4.9943 8.75656 5.04381 8.831 5.1064 8.89359C5.169 8.95619 5.24343 9.00569 5.32536 9.03921C5.40729 9.07273 5.49508 9.0896 5.5836 9.08883C5.67212 9.08806 5.7596 9.06967 5.84093 9.03473C5.92227 8.99979 5.99583 8.949 6.05733 8.88533L9.82866 5.11466C10.2038 4.73956 10.4145 4.23081 10.4145 3.70033C10.4145 3.16985 10.2038 2.6611 9.82866 2.286C9.45356 1.91089 8.94481 1.70016 8.41433 1.70016C7.88385 1.70016 7.3751 1.91089 7 2.286L3.22866 6.05733C2.91271 6.36542 2.66108 6.73317 2.48837 7.13926C2.31566 7.54535 2.22529 7.9817 2.22253 8.42298C2.21976 8.86427 2.30465 9.30171 2.47226 9.70993C2.63988 10.1182 2.88688 10.489 3.19894 10.8011C3.51101 11.1131 3.88192 11.36 4.29017 11.5276C4.69842 11.6951 5.13587 11.78 5.57716 11.7771C6.01844 11.7743 6.45477 11.6839 6.86084 11.5111C7.26691 11.3383 7.63462 11.0867 7.94266 10.7707L11.714 7L12.6567 7.94266L8.88533 11.714C8.45197 12.1474 7.93749 12.4911 7.37128 12.7257C6.80506 12.9602 6.1982 13.0809 5.58533 13.0809C4.97247 13.0809 4.3656 12.9602 3.79938 12.7257C3.23317 12.4911 2.71869 12.1474 2.28533 11.714C1.85197 11.2806 1.50821 10.7662 1.27367 10.1999C1.03914 9.63373 0.918427 9.02686 0.918427 8.414C0.918427 7.80113 1.03914 7.19426 1.27367 6.62805C1.50821 6.06183 1.85197 5.54736 2.28533 5.114L6.05733 1.34333C6.68601 0.736136 7.52801 0.400155 8.402 0.407749C9.27599 0.415344 10.112 0.765907 10.7301 1.38393C11.3481 2.00196 11.6986 2.838 11.7062 3.71199C11.7138 4.58598 11.3779 5.42799 10.7707 6.05666L7 9.82933C6.81422 10.0151 6.59368 10.1624 6.35097 10.2629C6.10826 10.3634 5.84813 10.4151 5.58543 10.4151C5.32273 10.415 5.06261 10.3633 4.81993 10.2627C4.57724 10.1621 4.35673 10.0148 4.171 9.829C3.98526 9.64322 3.83794 9.42268 3.73744 9.17997C3.63694 8.93725 3.58523 8.67712 3.58526 8.41443C3.58529 8.15173 3.63706 7.89161 3.73762 7.64892C3.83818 7.40623 3.98555 7.18573 4.17133 7L7.94266 3.22866L8.88533 4.17133Z" />
</svg>
