<svg width="24" height="24" viewBox="0 0 24 24" xmlns="http://www.w3.org/2000/svg">
<path fill-rule="evenodd" clip-rule="evenodd" d="M2.03472 10.3043C7.98173 7.71323 11.9473 6.00507 13.9315 5.17977C19.5968 2.82338 20.774 2.41405 21.5413 2.40053C21.7101 2.39756 22.0874 2.43938 22.3318 2.63771C22.5382 2.80518 22.595 3.0314 22.6222 3.19017C22.6493 3.34894 22.6832 3.71064 22.6563 3.99325C22.3493 7.21897 21.0209 15.0469 20.345 18.6598C20.0591 20.1886 19.496 20.7011 18.9509 20.7513C17.7662 20.8603 16.8666 19.9684 15.7192 19.2162C13.9238 18.0393 12.9095 17.3066 11.1666 16.1582C9.15252 14.8309 10.4582 14.1014 11.606 12.9092C11.9064 12.5972 17.1261 7.8495 17.2271 7.41881C17.2398 7.36494 17.2515 7.16416 17.1322 7.05814C17.0129 6.95212 16.8369 6.98837 16.7098 7.0172C16.5297 7.05808 13.6615 8.9539 8.10499 12.7047C7.29084 13.2637 6.5534 13.5361 5.89269 13.5219C5.1643 13.5061 3.76318 13.11 2.72159 12.7714C1.44404 12.3562 0.42867 12.1366 0.517086 11.4313C0.563138 11.064 1.06902 10.6883 2.03472 10.3043Z" />
</svg>
