<svg width="20" height="20" viewBox="0 0 20 20" xmlns="http://www.w3.org/2000/svg">
<path d="M19.5789 4.63158C20 6.52632 20 10.4211 20 10.4211C20 10.4211 20 14.3158 19.5789 16.2105C19.3684 17.2632 18.6316 18.1053 17.6842 18.3158C15.8947 18.8421 10 18.8421 10 18.8421C10 18.8421 4.10526 18.8421 2.42105 18.3158C1.47368 18 0.736842 17.2632 0.526316 16.2105C0 14.3158 0 10.4211 0 10.4211C0 10.4211 9.41126e-08 6.52632 0.421053 4.63158C0.631579 3.57895 1.36842 2.73684 2.31579 2.52632C4.10526 2 10 2 10 2C10 2 15.8947 2 17.5789 2.52632C18.5263 2.73684 19.2632 3.57895 19.5789 4.63158ZM8 14.1053L14 10.4211L8 6.73684V14.1053Z" />
</svg>
